<?xml version="1.0" encoding="utf-8" standalone="no"?>
<!DOCTYPE svg PUBLIC "-//W3C//DTD SVG 1.1//EN"
  "http://www.w3.org/Graphics/SVG/1.1/DTD/svg11.dtd">
<svg xmlns:xlink="http://www.w3.org/1999/xlink" width="1296pt" height="864pt" viewBox="0 0 1296 864" xmlns="http://www.w3.org/2000/svg" version="1.1">
 <metadata>
  <rdf:RDF xmlns:dc="http://purl.org/dc/elements/1.1/" xmlns:cc="http://creativecommons.org/ns#" xmlns:rdf="http://www.w3.org/1999/02/22-rdf-syntax-ns#">
   <cc:Work>
    <dc:type rdf:resource="http://purl.org/dc/dcmitype/StillImage"/>
    <dc:date>2024-10-22T16:28:22.003570</dc:date>
    <dc:format>image/svg+xml</dc:format>
    <dc:creator>
     <cc:Agent>
      <dc:title>Matplotlib v3.6.2, https://matplotlib.org/</dc:title>
     </cc:Agent>
    </dc:creator>
   </cc:Work>
  </rdf:RDF>
 </metadata>
 <defs>
  <style type="text/css">*{stroke-linejoin: round; stroke-linecap: butt}</style>
 </defs>
 <g id="figure_1">
  <g id="patch_1">
   <path d="M 0 864 
L 1296 864 
L 1296 0 
L 0 0 
L 0 864 
z
" style="fill: none"/>
  </g>
  <g id="axes_1">
   <g id="patch_2">
    <path d="M 162 768.96 
L 1166.4 768.96 
L 1166.4 103.68 
L 162 103.68 
L 162 768.96 
z
" style="fill: none"/>
   </g>
   <g id="PathCollection_1">
    <path d="M 207.654545 664.367109 
C 212.398643 664.367109 216.949073 662.48226 220.303656 659.127676 
C 223.658239 655.773093 225.543089 651.222663 225.543089 646.478566 
C 225.543089 641.734468 223.658239 637.184038 220.303656 633.829455 
C 216.949073 630.474872 212.398643 628.590022 207.654545 628.590022 
C 202.910448 628.590022 198.360018 630.474872 195.005435 633.829455 
C 191.650851 637.184038 189.766002 641.734468 189.766002 646.478566 
C 189.766002 651.222663 191.650851 655.773093 195.005435 659.127676 
C 198.360018 662.48226 202.910448 664.367109 207.654545 664.367109 
z
" clip-path="url(#p8616fd40f9)" style="fill: #00eb8a; fill-opacity: 0.5; stroke: #00eb8a; stroke-opacity: 0.5"/>
    <path d="M 288.111205 216.231503 
C 297.500293 216.231503 306.506093 212.501178 313.145181 205.86209 
C 319.78427 199.223002 323.514594 190.217202 323.514594 180.828113 
C 323.514594 171.439024 319.78427 162.433224 313.145181 155.794136 
C 306.506093 149.155048 297.500293 145.424723 288.111205 145.424723 
C 278.722116 145.424723 269.716316 149.155048 263.077228 155.794136 
C 256.438139 162.433224 252.707815 171.439024 252.707815 180.828113 
C 252.707815 190.217202 256.438139 199.223002 263.077228 205.86209 
C 269.716316 212.501178 278.722116 216.231503 288.111205 216.231503 
z
" clip-path="url(#p8616fd40f9)" style="fill: #001ff0; fill-opacity: 0.5; stroke: #001ff0; stroke-opacity: 0.5"/>
    <path d="M 356.25853 738.947767 
C 359.613113 738.947767 362.830753 737.614977 365.202802 735.242928 
C 367.57485 732.870879 368.907641 729.653239 368.907641 726.298656 
C 368.907641 722.944073 367.57485 719.726433 365.202802 717.354384 
C 362.830753 714.982335 359.613113 713.649545 356.25853 713.649545 
C 352.903947 713.649545 349.686307 714.982335 347.314258 717.354384 
C 344.942209 719.726433 343.609419 722.944073 343.609419 726.298656 
C 343.609419 729.653239 344.942209 732.870879 347.314258 735.242928 
C 349.686307 737.614977 352.903947 738.947767 356.25853 738.947767 
z
" clip-path="url(#p8616fd40f9)" style="fill: #00ff80; fill-opacity: 0.5; stroke: #00ff80; stroke-opacity: 0.5"/>
    <path d="M 367.616418 203.315715 
C 377.10476 203.315715 386.205763 199.545956 392.915034 192.836684 
C 399.624306 186.127413 403.394064 177.026411 403.394064 167.538068 
C 403.394064 158.049725 399.624306 148.948723 392.915034 142.239451 
C 386.205763 135.53018 377.10476 131.760421 367.616418 131.760421 
C 358.128075 131.760421 349.027072 135.53018 342.317801 142.239451 
C 335.608529 148.948723 331.838771 158.049725 331.838771 167.538068 
C 331.838771 177.026411 335.608529 186.127413 342.317801 192.836684 
C 349.027072 199.545956 358.128075 203.315715 367.616418 203.315715 
z
" clip-path="url(#p8616fd40f9)" style="fill: #0013f6; fill-opacity: 0.5; stroke: #0013f6; stroke-opacity: 0.5"/>
    <path d="M 404.722815 217.874782 
C 414.099198 217.874782 423.092811 214.149505 429.722915 207.519401 
C 436.353019 200.889297 440.078295 191.895684 440.078295 182.519301 
C 440.078295 173.142918 436.353019 164.149305 429.722915 157.519201 
C 423.092811 150.889097 414.099198 147.163821 404.722815 147.163821 
C 395.346432 147.163821 386.352819 150.889097 379.722715 157.519201 
C 373.092611 164.149305 369.367334 173.142918 369.367334 182.519301 
C 369.367334 191.895684 373.092611 200.889297 379.722715 207.519401 
C 386.352819 214.149505 395.346432 217.874782 404.722815 217.874782 
z
" clip-path="url(#p8616fd40f9)" style="fill: #0016f4; fill-opacity: 0.5; stroke: #0016f4; stroke-opacity: 0.5"/>
    <path d="M 446.289115 744.00658 
C 449.526006 744.00658 452.630757 742.72055 454.919584 740.431723 
C 457.208412 738.142896 458.494442 735.038144 458.494442 731.801254 
C 458.494442 728.564363 457.208412 725.459611 454.919584 723.170784 
C 452.630757 720.881957 449.526006 719.595927 446.289115 719.595927 
C 443.052225 719.595927 439.947473 720.881957 437.658646 723.170784 
C 435.369819 725.459611 434.083788 728.564363 434.083788 731.801254 
C 434.083788 735.038144 435.369819 738.142896 437.658646 740.431723 
C 439.947473 742.72055 443.052225 744.00658 446.289115 744.00658 
z
" clip-path="url(#p8616fd40f9)" style="fill: #00fa82; fill-opacity: 0.5; stroke: #00fa82; stroke-opacity: 0.5"/>
    <path d="M 463.355679 696.608435 
C 467.559713 696.608435 471.592126 694.938155 474.564827 691.965454 
C 477.537528 688.992753 479.207808 684.960339 479.207808 680.756306 
C 479.207808 676.552272 477.537528 672.519858 474.564827 669.547158 
C 471.592126 666.574457 467.559713 664.904176 463.355679 664.904176 
C 459.151645 664.904176 455.119232 666.574457 452.146531 669.547158 
C 449.17383 672.519858 447.50355 676.552272 447.50355 680.756306 
C 447.50355 684.960339 449.17383 688.992753 452.146531 691.965454 
C 455.119232 694.938155 459.151645 696.608435 463.355679 696.608435 
z
" clip-path="url(#p8616fd40f9)" style="fill: #00e38e; fill-opacity: 0.5; stroke: #00e38e; stroke-opacity: 0.5"/>
    <path d="M 516.517729 738.718078 
C 519.87755 738.718078 523.100213 737.383207 525.475965 735.007455 
C 527.851717 732.631703 529.186588 729.409039 529.186588 726.049218 
C 529.186588 722.689397 527.851717 719.466734 525.475965 717.090982 
C 523.100213 714.71523 519.87755 713.380359 516.517729 713.380359 
C 513.157908 713.380359 509.935245 714.71523 507.559492 717.090982 
C 505.18374 719.466734 503.848869 722.689397 503.848869 726.049218 
C 503.848869 729.409039 505.18374 732.631703 507.559492 735.007455 
C 509.935245 737.383207 513.157908 738.718078 516.517729 738.718078 
z
" clip-path="url(#p8616fd40f9)" style="fill: #00f186; fill-opacity: 0.5; stroke: #00f186; stroke-opacity: 0.5"/>
    <path d="M 528.648666 532.37198 
C 535.132516 532.37198 541.351677 529.795919 545.936451 525.211145 
C 550.521225 520.626371 553.097286 514.40721 553.097286 507.92336 
C 553.097286 501.439511 550.521225 495.22035 545.936451 490.635576 
C 541.351677 486.050802 535.132516 483.474741 528.648666 483.474741 
C 522.164817 483.474741 515.945656 486.050802 511.360882 490.635576 
C 506.776108 495.22035 504.200047 501.439511 504.200047 507.92336 
C 504.200047 514.40721 506.776108 520.626371 511.360882 525.211145 
C 515.945656 529.795919 522.164817 532.37198 528.648666 532.37198 
z
" clip-path="url(#p8616fd40f9)" style="fill: #0094b5; fill-opacity: 0.5; stroke: #0094b5; stroke-opacity: 0.5"/>
    <path d="M 555.88381 203.335111 
C 565.372005 203.335111 574.472865 199.565411 581.182032 192.856244 
C 587.891198 186.147077 591.660898 177.046217 591.660898 167.558023 
C 591.660898 158.069828 587.891198 148.968968 581.182032 142.259802 
C 574.472865 135.550635 565.372005 131.780935 555.88381 131.780935 
C 546.395616 131.780935 537.294756 135.550635 530.585589 142.259802 
C 523.876422 148.968968 520.106723 158.069828 520.106723 167.558023 
C 520.106723 177.046217 523.876422 186.147077 530.585589 192.856244 
C 537.294756 199.565411 546.395616 203.335111 555.88381 203.335111 
z
" clip-path="url(#p8616fd40f9)" style="fill: #0002fe; fill-opacity: 0.5; stroke: #0002fe; stroke-opacity: 0.5"/>
    <path d="M 583.713608 511.523331 
C 590.429481 511.523331 596.871193 508.855086 601.620032 504.106247 
C 606.368871 499.357408 609.037115 492.915696 609.037115 486.199824 
C 609.037115 479.483951 606.368871 473.04224 601.620032 468.293401 
C 596.871193 463.544562 590.429481 460.876317 583.713608 460.876317 
C 576.997736 460.876317 570.556024 463.544562 565.807185 468.293401 
C 561.058346 473.04224 558.390101 479.483951 558.390101 486.199824 
C 558.390101 492.915696 561.058346 499.357408 565.807185 504.106247 
C 570.556024 508.855086 576.997736 511.523331 583.713608 511.523331 
z
" clip-path="url(#p8616fd40f9)" style="fill: #0086bc; fill-opacity: 0.5; stroke: #0086bc; stroke-opacity: 0.5"/>
    <path d="M 628.60997 692.535615 
C 632.886242 692.535615 636.987944 690.836634 640.011724 687.812854 
C 643.035505 684.789073 644.734486 680.687371 644.734486 676.4111 
C 644.734486 672.134828 643.035505 668.033126 640.011724 665.009345 
C 636.987944 661.985565 632.886242 660.286584 628.60997 660.286584 
C 624.333699 660.286584 620.231996 661.985565 617.208216 665.009345 
C 614.184435 668.033126 612.485455 672.134828 612.485455 676.4111 
C 612.485455 680.687371 614.184435 684.789073 617.208216 687.812854 
C 620.231996 690.836634 624.333699 692.535615 628.60997 692.535615 
z
" clip-path="url(#p8616fd40f9)" style="fill: #00d396; fill-opacity: 0.5; stroke: #00d396; stroke-opacity: 0.5"/>
    <path d="M 655.964045 217.637261 
C 665.342265 217.637261 674.337641 213.911255 680.969044 207.279852 
C 687.600448 200.648448 691.326454 191.653073 691.326454 182.274852 
C 691.326454 172.896631 687.600448 163.901256 680.969044 157.269853 
C 674.337641 150.638449 665.342265 146.912443 655.964045 146.912443 
C 646.585824 146.912443 637.590449 150.638449 630.959045 157.269853 
C 624.327642 163.901256 620.601635 172.896631 620.601635 182.274852 
C 620.601635 191.653073 624.327642 200.648448 630.959045 207.279852 
C 637.590449 213.911255 646.585824 217.637261 655.964045 217.637261 
z
" clip-path="url(#p8616fd40f9)" style="fill: #0000ff; fill-opacity: 0.5; stroke: #0000ff; stroke-opacity: 0.5"/>
    <path d="M 669.641082 579.041644 
C 675.571204 579.041644 681.259241 576.685581 685.452471 572.492352 
C 689.6457 568.299123 692.001762 562.611085 692.001762 556.680964 
C 692.001762 550.750842 689.6457 545.062805 685.452471 540.869576 
C 681.259241 536.676346 675.571204 534.320284 669.641082 534.320284 
C 663.710961 534.320284 658.022923 536.676346 653.829694 540.869576 
C 649.636465 545.062805 647.280402 550.750842 647.280402 556.680964 
C 647.280402 562.611085 649.636465 568.299123 653.829694 572.492352 
C 658.022923 576.685581 663.710961 579.041644 669.641082 579.041644 
z
" clip-path="url(#p8616fd40f9)" style="fill: #009cb1; fill-opacity: 0.5; stroke: #009cb1; stroke-opacity: 0.5"/>
    <path d="M 861.238536 738.947767 
C 864.59312 738.947767 867.81076 737.614977 870.182808 735.242928 
C 872.554857 732.870879 873.887647 729.653239 873.887647 726.298656 
C 873.887647 722.944073 872.554857 719.726433 870.182808 717.354384 
C 867.81076 714.982335 864.59312 713.649545 861.238536 713.649545 
C 857.883953 713.649545 854.666313 714.982335 852.294265 717.354384 
C 849.922216 719.726433 848.589426 722.944073 848.589426 726.298656 
C 848.589426 729.653239 849.922216 732.870879 852.294265 735.242928 
C 854.666313 737.614977 857.883953 738.947767 861.238536 738.947767 
z
" clip-path="url(#p8616fd40f9)" style="fill: #00d396; fill-opacity: 0.5; stroke: #00d396; stroke-opacity: 0.5"/>
    <path d="M 1041.834895 696.592078 
C 1046.039222 696.592078 1050.071916 694.921681 1053.044824 691.948774 
C 1056.017732 688.975866 1057.688128 684.943172 1057.688128 680.738845 
C 1057.688128 676.534518 1056.017732 672.501824 1053.044824 669.528916 
C 1050.071916 666.556009 1046.039222 664.885612 1041.834895 664.885612 
C 1037.630569 664.885612 1033.597875 666.556009 1030.624967 669.528916 
C 1027.652059 672.501824 1025.981662 676.534518 1025.981662 680.738845 
C 1025.981662 684.943172 1027.652059 688.975866 1030.624967 691.948774 
C 1033.597875 694.921681 1037.630569 696.592078 1041.834895 696.592078 
z
" clip-path="url(#p8616fd40f9)" style="fill: #00b0a7; fill-opacity: 0.5; stroke: #00b0a7; stroke-opacity: 0.5"/>
    <path d="M 1120.745455 664.367109 
C 1125.489552 664.367109 1130.039982 662.48226 1133.394565 659.127676 
C 1136.749149 655.773093 1138.633998 651.222663 1138.633998 646.478566 
C 1138.633998 641.734468 1136.749149 637.184038 1133.394565 633.829455 
C 1130.039982 630.474872 1125.489552 628.590022 1120.745455 628.590022 
C 1116.001357 628.590022 1111.450927 630.474872 1108.096344 633.829455 
C 1104.741761 637.184038 1102.856911 641.734468 1102.856911 646.478566 
C 1102.856911 651.222663 1104.741761 655.773093 1108.096344 659.127676 
C 1111.450927 662.48226 1116.001357 664.367109 1120.745455 664.367109 
z
" clip-path="url(#p8616fd40f9)" style="fill: #009bb2; fill-opacity: 0.5; stroke: #009bb2; stroke-opacity: 0.5"/>
   </g>
   <g id="PathCollection_2">
    <defs>
     <path id="m2f18a679eb" d="M 0 -7.071068 
L -1.587554 -2.18508 
L -6.724985 -2.18508 
L -2.568716 0.834626 
L -4.156269 5.720614 
L -0 2.700907 
L 4.156269 5.720614 
L 2.568716 0.834626 
L 6.724985 -2.18508 
L 1.587554 -2.18508 
z
" style="stroke: #000000"/>
    </defs>
    <g clip-path="url(#p8616fd40f9)">
     <use xlink:href="#m2f18a679eb" x="297.669848" y="722.307652" style="fill: #ffd700; stroke: #000000"/>
    </g>
   </g>
   <g id="matplotlib.axis_1">
    <g id="xtick_1">
     <g id="line2d_1">
      <path d="M 162.222995 768.96 
L 162.222995 103.68 
" clip-path="url(#p8616fd40f9)" style="fill: none; stroke-dasharray: 1.85,0.8; stroke-dashoffset: 0; stroke: #808080; stroke-width: 0.5"/>
     </g>
     <g id="line2d_2">
      <defs>
       <path id="mcca29b2b68" d="M 0 0 
L 0 3.5 
" style="stroke: #000000; stroke-width: 0.8"/>
      </defs>
      <g>
       <use xlink:href="#mcca29b2b68" x="162.222995" y="768.96" style="stroke: #000000; stroke-width: 0.8"/>
      </g>
     </g>
     <g id="text_1">
      <!-- 22000 -->
      <g transform="translate(146.316745 783.558437) scale(0.1 -0.1)">
       <defs>
        <path id="DejaVuSans-32" d="M 1228 531 
L 3431 531 
L 3431 0 
L 469 0 
L 469 531 
Q 828 903 1448 1529 
Q 2069 2156 2228 2338 
Q 2531 2678 2651 2914 
Q 2772 3150 2772 3378 
Q 2772 3750 2511 3984 
Q 2250 4219 1831 4219 
Q 1534 4219 1204 4116 
Q 875 4013 500 3803 
L 500 4441 
Q 881 4594 1212 4672 
Q 1544 4750 1819 4750 
Q 2544 4750 2975 4387 
Q 3406 4025 3406 3419 
Q 3406 3131 3298 2873 
Q 3191 2616 2906 2266 
Q 2828 2175 2409 1742 
Q 1991 1309 1228 531 
z
" transform="scale(0.015625)"/>
        <path id="DejaVuSans-30" d="M 2034 4250 
Q 1547 4250 1301 3770 
Q 1056 3291 1056 2328 
Q 1056 1369 1301 889 
Q 1547 409 2034 409 
Q 2525 409 2770 889 
Q 3016 1369 3016 2328 
Q 3016 3291 2770 3770 
Q 2525 4250 2034 4250 
z
M 2034 4750 
Q 2819 4750 3233 4129 
Q 3647 3509 3647 2328 
Q 3647 1150 3233 529 
Q 2819 -91 2034 -91 
Q 1250 -91 836 529 
Q 422 1150 422 2328 
Q 422 3509 836 4129 
Q 1250 4750 2034 4750 
z
" transform="scale(0.015625)"/>
       </defs>
       <use xlink:href="#DejaVuSans-32"/>
       <use xlink:href="#DejaVuSans-32" x="63.623047"/>
       <use xlink:href="#DejaVuSans-30" x="127.246094"/>
       <use xlink:href="#DejaVuSans-30" x="190.869141"/>
       <use xlink:href="#DejaVuSans-30" x="254.492188"/>
      </g>
     </g>
    </g>
    <g id="xtick_2">
     <g id="line2d_3">
      <path d="M 281.153755 768.96 
L 281.153755 103.68 
" clip-path="url(#p8616fd40f9)" style="fill: none; stroke-dasharray: 1.85,0.8; stroke-dashoffset: 0; stroke: #808080; stroke-width: 0.5"/>
     </g>
     <g id="line2d_4">
      <g>
       <use xlink:href="#mcca29b2b68" x="281.153755" y="768.96" style="stroke: #000000; stroke-width: 0.8"/>
      </g>
     </g>
     <g id="text_2">
      <!-- 24000 -->
      <g transform="translate(265.247505 783.558437) scale(0.1 -0.1)">
       <defs>
        <path id="DejaVuSans-34" d="M 2419 4116 
L 825 1625 
L 2419 1625 
L 2419 4116 
z
M 2253 4666 
L 3047 4666 
L 3047 1625 
L 3713 1625 
L 3713 1100 
L 3047 1100 
L 3047 0 
L 2419 0 
L 2419 1100 
L 313 1100 
L 313 1709 
L 2253 4666 
z
" transform="scale(0.015625)"/>
       </defs>
       <use xlink:href="#DejaVuSans-32"/>
       <use xlink:href="#DejaVuSans-34" x="63.623047"/>
       <use xlink:href="#DejaVuSans-30" x="127.246094"/>
       <use xlink:href="#DejaVuSans-30" x="190.869141"/>
       <use xlink:href="#DejaVuSans-30" x="254.492188"/>
      </g>
     </g>
    </g>
    <g id="xtick_3">
     <g id="line2d_5">
      <path d="M 400.084515 768.96 
L 400.084515 103.68 
" clip-path="url(#p8616fd40f9)" style="fill: none; stroke-dasharray: 1.85,0.8; stroke-dashoffset: 0; stroke: #808080; stroke-width: 0.5"/>
     </g>
     <g id="line2d_6">
      <g>
       <use xlink:href="#mcca29b2b68" x="400.084515" y="768.96" style="stroke: #000000; stroke-width: 0.8"/>
      </g>
     </g>
     <g id="text_3">
      <!-- 26000 -->
      <g transform="translate(384.178265 783.558437) scale(0.1 -0.1)">
       <defs>
        <path id="DejaVuSans-36" d="M 2113 2584 
Q 1688 2584 1439 2293 
Q 1191 2003 1191 1497 
Q 1191 994 1439 701 
Q 1688 409 2113 409 
Q 2538 409 2786 701 
Q 3034 994 3034 1497 
Q 3034 2003 2786 2293 
Q 2538 2584 2113 2584 
z
M 3366 4563 
L 3366 3988 
Q 3128 4100 2886 4159 
Q 2644 4219 2406 4219 
Q 1781 4219 1451 3797 
Q 1122 3375 1075 2522 
Q 1259 2794 1537 2939 
Q 1816 3084 2150 3084 
Q 2853 3084 3261 2657 
Q 3669 2231 3669 1497 
Q 3669 778 3244 343 
Q 2819 -91 2113 -91 
Q 1303 -91 875 529 
Q 447 1150 447 2328 
Q 447 3434 972 4092 
Q 1497 4750 2381 4750 
Q 2619 4750 2861 4703 
Q 3103 4656 3366 4563 
z
" transform="scale(0.015625)"/>
       </defs>
       <use xlink:href="#DejaVuSans-32"/>
       <use xlink:href="#DejaVuSans-36" x="63.623047"/>
       <use xlink:href="#DejaVuSans-30" x="127.246094"/>
       <use xlink:href="#DejaVuSans-30" x="190.869141"/>
       <use xlink:href="#DejaVuSans-30" x="254.492188"/>
      </g>
     </g>
    </g>
    <g id="xtick_4">
     <g id="line2d_7">
      <path d="M 519.015275 768.96 
L 519.015275 103.68 
" clip-path="url(#p8616fd40f9)" style="fill: none; stroke-dasharray: 1.85,0.8; stroke-dashoffset: 0; stroke: #808080; stroke-width: 0.5"/>
     </g>
     <g id="line2d_8">
      <g>
       <use xlink:href="#mcca29b2b68" x="519.015275" y="768.96" style="stroke: #000000; stroke-width: 0.8"/>
      </g>
     </g>
     <g id="text_4">
      <!-- 28000 -->
      <g transform="translate(503.109025 783.558437) scale(0.1 -0.1)">
       <defs>
        <path id="DejaVuSans-38" d="M 2034 2216 
Q 1584 2216 1326 1975 
Q 1069 1734 1069 1313 
Q 1069 891 1326 650 
Q 1584 409 2034 409 
Q 2484 409 2743 651 
Q 3003 894 3003 1313 
Q 3003 1734 2745 1975 
Q 2488 2216 2034 2216 
z
M 1403 2484 
Q 997 2584 770 2862 
Q 544 3141 544 3541 
Q 544 4100 942 4425 
Q 1341 4750 2034 4750 
Q 2731 4750 3128 4425 
Q 3525 4100 3525 3541 
Q 3525 3141 3298 2862 
Q 3072 2584 2669 2484 
Q 3125 2378 3379 2068 
Q 3634 1759 3634 1313 
Q 3634 634 3220 271 
Q 2806 -91 2034 -91 
Q 1263 -91 848 271 
Q 434 634 434 1313 
Q 434 1759 690 2068 
Q 947 2378 1403 2484 
z
M 1172 3481 
Q 1172 3119 1398 2916 
Q 1625 2713 2034 2713 
Q 2441 2713 2670 2916 
Q 2900 3119 2900 3481 
Q 2900 3844 2670 4047 
Q 2441 4250 2034 4250 
Q 1625 4250 1398 4047 
Q 1172 3844 1172 3481 
z
" transform="scale(0.015625)"/>
       </defs>
       <use xlink:href="#DejaVuSans-32"/>
       <use xlink:href="#DejaVuSans-38" x="63.623047"/>
       <use xlink:href="#DejaVuSans-30" x="127.246094"/>
       <use xlink:href="#DejaVuSans-30" x="190.869141"/>
       <use xlink:href="#DejaVuSans-30" x="254.492188"/>
      </g>
     </g>
    </g>
    <g id="xtick_5">
     <g id="line2d_9">
      <path d="M 637.946035 768.96 
L 637.946035 103.68 
" clip-path="url(#p8616fd40f9)" style="fill: none; stroke-dasharray: 1.85,0.8; stroke-dashoffset: 0; stroke: #808080; stroke-width: 0.5"/>
     </g>
     <g id="line2d_10">
      <g>
       <use xlink:href="#mcca29b2b68" x="637.946035" y="768.96" style="stroke: #000000; stroke-width: 0.8"/>
      </g>
     </g>
     <g id="text_5">
      <!-- 30000 -->
      <g transform="translate(622.039785 783.558437) scale(0.1 -0.1)">
       <defs>
        <path id="DejaVuSans-33" d="M 2597 2516 
Q 3050 2419 3304 2112 
Q 3559 1806 3559 1356 
Q 3559 666 3084 287 
Q 2609 -91 1734 -91 
Q 1441 -91 1130 -33 
Q 819 25 488 141 
L 488 750 
Q 750 597 1062 519 
Q 1375 441 1716 441 
Q 2309 441 2620 675 
Q 2931 909 2931 1356 
Q 2931 1769 2642 2001 
Q 2353 2234 1838 2234 
L 1294 2234 
L 1294 2753 
L 1863 2753 
Q 2328 2753 2575 2939 
Q 2822 3125 2822 3475 
Q 2822 3834 2567 4026 
Q 2313 4219 1838 4219 
Q 1578 4219 1281 4162 
Q 984 4106 628 3988 
L 628 4550 
Q 988 4650 1302 4700 
Q 1616 4750 1894 4750 
Q 2613 4750 3031 4423 
Q 3450 4097 3450 3541 
Q 3450 3153 3228 2886 
Q 3006 2619 2597 2516 
z
" transform="scale(0.015625)"/>
       </defs>
       <use xlink:href="#DejaVuSans-33"/>
       <use xlink:href="#DejaVuSans-30" x="63.623047"/>
       <use xlink:href="#DejaVuSans-30" x="127.246094"/>
       <use xlink:href="#DejaVuSans-30" x="190.869141"/>
       <use xlink:href="#DejaVuSans-30" x="254.492188"/>
      </g>
     </g>
    </g>
    <g id="xtick_6">
     <g id="line2d_11">
      <path d="M 756.876795 768.96 
L 756.876795 103.68 
" clip-path="url(#p8616fd40f9)" style="fill: none; stroke-dasharray: 1.85,0.8; stroke-dashoffset: 0; stroke: #808080; stroke-width: 0.5"/>
     </g>
     <g id="line2d_12">
      <g>
       <use xlink:href="#mcca29b2b68" x="756.876795" y="768.96" style="stroke: #000000; stroke-width: 0.8"/>
      </g>
     </g>
     <g id="text_6">
      <!-- 32000 -->
      <g transform="translate(740.970545 783.558437) scale(0.1 -0.1)">
       <use xlink:href="#DejaVuSans-33"/>
       <use xlink:href="#DejaVuSans-32" x="63.623047"/>
       <use xlink:href="#DejaVuSans-30" x="127.246094"/>
       <use xlink:href="#DejaVuSans-30" x="190.869141"/>
       <use xlink:href="#DejaVuSans-30" x="254.492188"/>
      </g>
     </g>
    </g>
    <g id="xtick_7">
     <g id="line2d_13">
      <path d="M 875.807555 768.96 
L 875.807555 103.68 
" clip-path="url(#p8616fd40f9)" style="fill: none; stroke-dasharray: 1.85,0.8; stroke-dashoffset: 0; stroke: #808080; stroke-width: 0.5"/>
     </g>
     <g id="line2d_14">
      <g>
       <use xlink:href="#mcca29b2b68" x="875.807555" y="768.96" style="stroke: #000000; stroke-width: 0.8"/>
      </g>
     </g>
     <g id="text_7">
      <!-- 34000 -->
      <g transform="translate(859.901305 783.558437) scale(0.1 -0.1)">
       <use xlink:href="#DejaVuSans-33"/>
       <use xlink:href="#DejaVuSans-34" x="63.623047"/>
       <use xlink:href="#DejaVuSans-30" x="127.246094"/>
       <use xlink:href="#DejaVuSans-30" x="190.869141"/>
       <use xlink:href="#DejaVuSans-30" x="254.492188"/>
      </g>
     </g>
    </g>
    <g id="xtick_8">
     <g id="line2d_15">
      <path d="M 994.738314 768.96 
L 994.738314 103.68 
" clip-path="url(#p8616fd40f9)" style="fill: none; stroke-dasharray: 1.85,0.8; stroke-dashoffset: 0; stroke: #808080; stroke-width: 0.5"/>
     </g>
     <g id="line2d_16">
      <g>
       <use xlink:href="#mcca29b2b68" x="994.738314" y="768.96" style="stroke: #000000; stroke-width: 0.8"/>
      </g>
     </g>
     <g id="text_8">
      <!-- 36000 -->
      <g transform="translate(978.832064 783.558437) scale(0.1 -0.1)">
       <use xlink:href="#DejaVuSans-33"/>
       <use xlink:href="#DejaVuSans-36" x="63.623047"/>
       <use xlink:href="#DejaVuSans-30" x="127.246094"/>
       <use xlink:href="#DejaVuSans-30" x="190.869141"/>
       <use xlink:href="#DejaVuSans-30" x="254.492188"/>
      </g>
     </g>
    </g>
    <g id="xtick_9">
     <g id="line2d_17">
      <path d="M 1113.669074 768.96 
L 1113.669074 103.68 
" clip-path="url(#p8616fd40f9)" style="fill: none; stroke-dasharray: 1.85,0.8; stroke-dashoffset: 0; stroke: #808080; stroke-width: 0.5"/>
     </g>
     <g id="line2d_18">
      <g>
       <use xlink:href="#mcca29b2b68" x="1113.669074" y="768.96" style="stroke: #000000; stroke-width: 0.8"/>
      </g>
     </g>
     <g id="text_9">
      <!-- 38000 -->
      <g transform="translate(1097.762824 783.558437) scale(0.1 -0.1)">
       <use xlink:href="#DejaVuSans-33"/>
       <use xlink:href="#DejaVuSans-38" x="63.623047"/>
       <use xlink:href="#DejaVuSans-30" x="127.246094"/>
       <use xlink:href="#DejaVuSans-30" x="190.869141"/>
       <use xlink:href="#DejaVuSans-30" x="254.492188"/>
      </g>
     </g>
    </g>
    <g id="text_10">
     <!-- Number of Tokens -->
     <g transform="translate(592.3425 801.795625) scale(0.16 -0.16)">
      <defs>
       <path id="DejaVuSans-4e" d="M 628 4666 
L 1478 4666 
L 3547 763 
L 3547 4666 
L 4159 4666 
L 4159 0 
L 3309 0 
L 1241 3903 
L 1241 0 
L 628 0 
L 628 4666 
z
" transform="scale(0.015625)"/>
       <path id="DejaVuSans-75" d="M 544 1381 
L 544 3500 
L 1119 3500 
L 1119 1403 
Q 1119 906 1312 657 
Q 1506 409 1894 409 
Q 2359 409 2629 706 
Q 2900 1003 2900 1516 
L 2900 3500 
L 3475 3500 
L 3475 0 
L 2900 0 
L 2900 538 
Q 2691 219 2414 64 
Q 2138 -91 1772 -91 
Q 1169 -91 856 284 
Q 544 659 544 1381 
z
M 1991 3584 
L 1991 3584 
z
" transform="scale(0.015625)"/>
       <path id="DejaVuSans-6d" d="M 3328 2828 
Q 3544 3216 3844 3400 
Q 4144 3584 4550 3584 
Q 5097 3584 5394 3201 
Q 5691 2819 5691 2113 
L 5691 0 
L 5113 0 
L 5113 2094 
Q 5113 2597 4934 2840 
Q 4756 3084 4391 3084 
Q 3944 3084 3684 2787 
Q 3425 2491 3425 1978 
L 3425 0 
L 2847 0 
L 2847 2094 
Q 2847 2600 2669 2842 
Q 2491 3084 2119 3084 
Q 1678 3084 1418 2786 
Q 1159 2488 1159 1978 
L 1159 0 
L 581 0 
L 581 3500 
L 1159 3500 
L 1159 2956 
Q 1356 3278 1631 3431 
Q 1906 3584 2284 3584 
Q 2666 3584 2933 3390 
Q 3200 3197 3328 2828 
z
" transform="scale(0.015625)"/>
       <path id="DejaVuSans-62" d="M 3116 1747 
Q 3116 2381 2855 2742 
Q 2594 3103 2138 3103 
Q 1681 3103 1420 2742 
Q 1159 2381 1159 1747 
Q 1159 1113 1420 752 
Q 1681 391 2138 391 
Q 2594 391 2855 752 
Q 3116 1113 3116 1747 
z
M 1159 2969 
Q 1341 3281 1617 3432 
Q 1894 3584 2278 3584 
Q 2916 3584 3314 3078 
Q 3713 2572 3713 1747 
Q 3713 922 3314 415 
Q 2916 -91 2278 -91 
Q 1894 -91 1617 61 
Q 1341 213 1159 525 
L 1159 0 
L 581 0 
L 581 4863 
L 1159 4863 
L 1159 2969 
z
" transform="scale(0.015625)"/>
       <path id="DejaVuSans-65" d="M 3597 1894 
L 3597 1613 
L 953 1613 
Q 991 1019 1311 708 
Q 1631 397 2203 397 
Q 2534 397 2845 478 
Q 3156 559 3463 722 
L 3463 178 
Q 3153 47 2828 -22 
Q 2503 -91 2169 -91 
Q 1331 -91 842 396 
Q 353 884 353 1716 
Q 353 2575 817 3079 
Q 1281 3584 2069 3584 
Q 2775 3584 3186 3129 
Q 3597 2675 3597 1894 
z
M 3022 2063 
Q 3016 2534 2758 2815 
Q 2500 3097 2075 3097 
Q 1594 3097 1305 2825 
Q 1016 2553 972 2059 
L 3022 2063 
z
" transform="scale(0.015625)"/>
       <path id="DejaVuSans-72" d="M 2631 2963 
Q 2534 3019 2420 3045 
Q 2306 3072 2169 3072 
Q 1681 3072 1420 2755 
Q 1159 2438 1159 1844 
L 1159 0 
L 581 0 
L 581 3500 
L 1159 3500 
L 1159 2956 
Q 1341 3275 1631 3429 
Q 1922 3584 2338 3584 
Q 2397 3584 2469 3576 
Q 2541 3569 2628 3553 
L 2631 2963 
z
" transform="scale(0.015625)"/>
       <path id="DejaVuSans-20" transform="scale(0.015625)"/>
       <path id="DejaVuSans-6f" d="M 1959 3097 
Q 1497 3097 1228 2736 
Q 959 2375 959 1747 
Q 959 1119 1226 758 
Q 1494 397 1959 397 
Q 2419 397 2687 759 
Q 2956 1122 2956 1747 
Q 2956 2369 2687 2733 
Q 2419 3097 1959 3097 
z
M 1959 3584 
Q 2709 3584 3137 3096 
Q 3566 2609 3566 1747 
Q 3566 888 3137 398 
Q 2709 -91 1959 -91 
Q 1206 -91 779 398 
Q 353 888 353 1747 
Q 353 2609 779 3096 
Q 1206 3584 1959 3584 
z
" transform="scale(0.015625)"/>
       <path id="DejaVuSans-66" d="M 2375 4863 
L 2375 4384 
L 1825 4384 
Q 1516 4384 1395 4259 
Q 1275 4134 1275 3809 
L 1275 3500 
L 2222 3500 
L 2222 3053 
L 1275 3053 
L 1275 0 
L 697 0 
L 697 3053 
L 147 3053 
L 147 3500 
L 697 3500 
L 697 3744 
Q 697 4328 969 4595 
Q 1241 4863 1831 4863 
L 2375 4863 
z
" transform="scale(0.015625)"/>
       <path id="DejaVuSans-54" d="M -19 4666 
L 3928 4666 
L 3928 4134 
L 2272 4134 
L 2272 0 
L 1638 0 
L 1638 4134 
L -19 4134 
L -19 4666 
z
" transform="scale(0.015625)"/>
       <path id="DejaVuSans-6b" d="M 581 4863 
L 1159 4863 
L 1159 1991 
L 2875 3500 
L 3609 3500 
L 1753 1863 
L 3688 0 
L 2938 0 
L 1159 1709 
L 1159 0 
L 581 0 
L 581 4863 
z
" transform="scale(0.015625)"/>
       <path id="DejaVuSans-6e" d="M 3513 2113 
L 3513 0 
L 2938 0 
L 2938 2094 
Q 2938 2591 2744 2837 
Q 2550 3084 2163 3084 
Q 1697 3084 1428 2787 
Q 1159 2491 1159 1978 
L 1159 0 
L 581 0 
L 581 3500 
L 1159 3500 
L 1159 2956 
Q 1366 3272 1645 3428 
Q 1925 3584 2291 3584 
Q 2894 3584 3203 3211 
Q 3513 2838 3513 2113 
z
" transform="scale(0.015625)"/>
       <path id="DejaVuSans-73" d="M 2834 3397 
L 2834 2853 
Q 2591 2978 2328 3040 
Q 2066 3103 1784 3103 
Q 1356 3103 1142 2972 
Q 928 2841 928 2578 
Q 928 2378 1081 2264 
Q 1234 2150 1697 2047 
L 1894 2003 
Q 2506 1872 2764 1633 
Q 3022 1394 3022 966 
Q 3022 478 2636 193 
Q 2250 -91 1575 -91 
Q 1294 -91 989 -36 
Q 684 19 347 128 
L 347 722 
Q 666 556 975 473 
Q 1284 391 1588 391 
Q 1994 391 2212 530 
Q 2431 669 2431 922 
Q 2431 1156 2273 1281 
Q 2116 1406 1581 1522 
L 1381 1569 
Q 847 1681 609 1914 
Q 372 2147 372 2553 
Q 372 3047 722 3315 
Q 1072 3584 1716 3584 
Q 2034 3584 2315 3537 
Q 2597 3491 2834 3397 
z
" transform="scale(0.015625)"/>
      </defs>
      <use xlink:href="#DejaVuSans-4e"/>
      <use xlink:href="#DejaVuSans-75" x="74.804688"/>
      <use xlink:href="#DejaVuSans-6d" x="138.183594"/>
      <use xlink:href="#DejaVuSans-62" x="235.595703"/>
      <use xlink:href="#DejaVuSans-65" x="299.072266"/>
      <use xlink:href="#DejaVuSans-72" x="360.595703"/>
      <use xlink:href="#DejaVuSans-20" x="401.708984"/>
      <use xlink:href="#DejaVuSans-6f" x="433.496094"/>
      <use xlink:href="#DejaVuSans-66" x="494.677734"/>
      <use xlink:href="#DejaVuSans-20" x="529.882812"/>
      <use xlink:href="#DejaVuSans-54" x="561.669922"/>
      <use xlink:href="#DejaVuSans-6f" x="605.753906"/>
      <use xlink:href="#DejaVuSans-6b" x="666.935547"/>
      <use xlink:href="#DejaVuSans-65" x="721.220703"/>
      <use xlink:href="#DejaVuSans-6e" x="782.744141"/>
      <use xlink:href="#DejaVuSans-73" x="846.123047"/>
     </g>
    </g>
   </g>
   <g id="matplotlib.axis_2">
    <g id="ytick_1">
     <g id="line2d_19">
      <path d="M 162 681.399855 
L 1166.4 681.399855 
" clip-path="url(#p8616fd40f9)" style="fill: none; stroke-dasharray: 1.85,0.8; stroke-dashoffset: 0; stroke: #808080; stroke-width: 0.5"/>
     </g>
     <g id="line2d_20">
      <defs>
       <path id="m5732e798fa" d="M 0 0 
L -3.5 0 
" style="stroke: #000000; stroke-width: 0.8"/>
      </defs>
      <g>
       <use xlink:href="#m5732e798fa" x="162" y="681.399855" style="stroke: #000000; stroke-width: 0.8"/>
      </g>
     </g>
     <g id="text_11">
      <!-- 50000 -->
      <g transform="translate(123.1875 685.199074) scale(0.1 -0.1)">
       <defs>
        <path id="DejaVuSans-35" d="M 691 4666 
L 3169 4666 
L 3169 4134 
L 1269 4134 
L 1269 2991 
Q 1406 3038 1543 3061 
Q 1681 3084 1819 3084 
Q 2600 3084 3056 2656 
Q 3513 2228 3513 1497 
Q 3513 744 3044 326 
Q 2575 -91 1722 -91 
Q 1428 -91 1123 -41 
Q 819 9 494 109 
L 494 744 
Q 775 591 1075 516 
Q 1375 441 1709 441 
Q 2250 441 2565 725 
Q 2881 1009 2881 1497 
Q 2881 1984 2565 2268 
Q 2250 2553 1709 2553 
Q 1456 2553 1204 2497 
Q 953 2441 691 2322 
L 691 4666 
z
" transform="scale(0.015625)"/>
       </defs>
       <use xlink:href="#DejaVuSans-35"/>
       <use xlink:href="#DejaVuSans-30" x="63.623047"/>
       <use xlink:href="#DejaVuSans-30" x="127.246094"/>
       <use xlink:href="#DejaVuSans-30" x="190.869141"/>
       <use xlink:href="#DejaVuSans-30" x="254.492188"/>
      </g>
     </g>
    </g>
    <g id="ytick_2">
     <g id="line2d_21">
      <path d="M 162 556.680964 
L 1166.4 556.680964 
" clip-path="url(#p8616fd40f9)" style="fill: none; stroke-dasharray: 1.85,0.8; stroke-dashoffset: 0; stroke: #808080; stroke-width: 0.5"/>
     </g>
     <g id="line2d_22">
      <g>
       <use xlink:href="#m5732e798fa" x="162" y="556.680964" style="stroke: #000000; stroke-width: 0.8"/>
      </g>
     </g>
     <g id="text_12">
      <!-- 100000 -->
      <g transform="translate(116.825 560.480183) scale(0.1 -0.1)">
       <defs>
        <path id="DejaVuSans-31" d="M 794 531 
L 1825 531 
L 1825 4091 
L 703 3866 
L 703 4441 
L 1819 4666 
L 2450 4666 
L 2450 531 
L 3481 531 
L 3481 0 
L 794 0 
L 794 531 
z
" transform="scale(0.015625)"/>
       </defs>
       <use xlink:href="#DejaVuSans-31"/>
       <use xlink:href="#DejaVuSans-30" x="63.623047"/>
       <use xlink:href="#DejaVuSans-30" x="127.246094"/>
       <use xlink:href="#DejaVuSans-30" x="190.869141"/>
       <use xlink:href="#DejaVuSans-30" x="254.492188"/>
       <use xlink:href="#DejaVuSans-30" x="318.115234"/>
      </g>
     </g>
    </g>
    <g id="ytick_3">
     <g id="line2d_23">
      <path d="M 162 431.962072 
L 1166.4 431.962072 
" clip-path="url(#p8616fd40f9)" style="fill: none; stroke-dasharray: 1.85,0.8; stroke-dashoffset: 0; stroke: #808080; stroke-width: 0.5"/>
     </g>
     <g id="line2d_24">
      <g>
       <use xlink:href="#m5732e798fa" x="162" y="431.962072" style="stroke: #000000; stroke-width: 0.8"/>
      </g>
     </g>
     <g id="text_13">
      <!-- 150000 -->
      <g transform="translate(116.825 435.761291) scale(0.1 -0.1)">
       <use xlink:href="#DejaVuSans-31"/>
       <use xlink:href="#DejaVuSans-35" x="63.623047"/>
       <use xlink:href="#DejaVuSans-30" x="127.246094"/>
       <use xlink:href="#DejaVuSans-30" x="190.869141"/>
       <use xlink:href="#DejaVuSans-30" x="254.492188"/>
       <use xlink:href="#DejaVuSans-30" x="318.115234"/>
      </g>
     </g>
    </g>
    <g id="ytick_4">
     <g id="line2d_25">
      <path d="M 162 307.243181 
L 1166.4 307.243181 
" clip-path="url(#p8616fd40f9)" style="fill: none; stroke-dasharray: 1.85,0.8; stroke-dashoffset: 0; stroke: #808080; stroke-width: 0.5"/>
     </g>
     <g id="line2d_26">
      <g>
       <use xlink:href="#m5732e798fa" x="162" y="307.243181" style="stroke: #000000; stroke-width: 0.8"/>
      </g>
     </g>
     <g id="text_14">
      <!-- 200000 -->
      <g transform="translate(116.825 311.0424) scale(0.1 -0.1)">
       <use xlink:href="#DejaVuSans-32"/>
       <use xlink:href="#DejaVuSans-30" x="63.623047"/>
       <use xlink:href="#DejaVuSans-30" x="127.246094"/>
       <use xlink:href="#DejaVuSans-30" x="190.869141"/>
       <use xlink:href="#DejaVuSans-30" x="254.492188"/>
       <use xlink:href="#DejaVuSans-30" x="318.115234"/>
      </g>
     </g>
    </g>
    <g id="ytick_5">
     <g id="line2d_27">
      <path d="M 162 182.52429 
L 1166.4 182.52429 
" clip-path="url(#p8616fd40f9)" style="fill: none; stroke-dasharray: 1.85,0.8; stroke-dashoffset: 0; stroke: #808080; stroke-width: 0.5"/>
     </g>
     <g id="line2d_28">
      <g>
       <use xlink:href="#m5732e798fa" x="162" y="182.52429" style="stroke: #000000; stroke-width: 0.8"/>
      </g>
     </g>
     <g id="text_15">
      <!-- 250000 -->
      <g transform="translate(116.825 186.323509) scale(0.1 -0.1)">
       <use xlink:href="#DejaVuSans-32"/>
       <use xlink:href="#DejaVuSans-35" x="63.623047"/>
       <use xlink:href="#DejaVuSans-30" x="127.246094"/>
       <use xlink:href="#DejaVuSans-30" x="190.869141"/>
       <use xlink:href="#DejaVuSans-30" x="254.492188"/>
       <use xlink:href="#DejaVuSans-30" x="318.115234"/>
      </g>
     </g>
    </g>
    <g id="text_16">
     <!-- Vocab Size -->
     <g transform="translate(109.4975 479.4125) rotate(-90) scale(0.16 -0.16)">
      <defs>
       <path id="DejaVuSans-56" d="M 1831 0 
L 50 4666 
L 709 4666 
L 2188 738 
L 3669 4666 
L 4325 4666 
L 2547 0 
L 1831 0 
z
" transform="scale(0.015625)"/>
       <path id="DejaVuSans-63" d="M 3122 3366 
L 3122 2828 
Q 2878 2963 2633 3030 
Q 2388 3097 2138 3097 
Q 1578 3097 1268 2742 
Q 959 2388 959 1747 
Q 959 1106 1268 751 
Q 1578 397 2138 397 
Q 2388 397 2633 464 
Q 2878 531 3122 666 
L 3122 134 
Q 2881 22 2623 -34 
Q 2366 -91 2075 -91 
Q 1284 -91 818 406 
Q 353 903 353 1747 
Q 353 2603 823 3093 
Q 1294 3584 2113 3584 
Q 2378 3584 2631 3529 
Q 2884 3475 3122 3366 
z
" transform="scale(0.015625)"/>
       <path id="DejaVuSans-61" d="M 2194 1759 
Q 1497 1759 1228 1600 
Q 959 1441 959 1056 
Q 959 750 1161 570 
Q 1363 391 1709 391 
Q 2188 391 2477 730 
Q 2766 1069 2766 1631 
L 2766 1759 
L 2194 1759 
z
M 3341 1997 
L 3341 0 
L 2766 0 
L 2766 531 
Q 2569 213 2275 61 
Q 1981 -91 1556 -91 
Q 1019 -91 701 211 
Q 384 513 384 1019 
Q 384 1609 779 1909 
Q 1175 2209 1959 2209 
L 2766 2209 
L 2766 2266 
Q 2766 2663 2505 2880 
Q 2244 3097 1772 3097 
Q 1472 3097 1187 3025 
Q 903 2953 641 2809 
L 641 3341 
Q 956 3463 1253 3523 
Q 1550 3584 1831 3584 
Q 2591 3584 2966 3190 
Q 3341 2797 3341 1997 
z
" transform="scale(0.015625)"/>
       <path id="DejaVuSans-53" d="M 3425 4513 
L 3425 3897 
Q 3066 4069 2747 4153 
Q 2428 4238 2131 4238 
Q 1616 4238 1336 4038 
Q 1056 3838 1056 3469 
Q 1056 3159 1242 3001 
Q 1428 2844 1947 2747 
L 2328 2669 
Q 3034 2534 3370 2195 
Q 3706 1856 3706 1288 
Q 3706 609 3251 259 
Q 2797 -91 1919 -91 
Q 1588 -91 1214 -16 
Q 841 59 441 206 
L 441 856 
Q 825 641 1194 531 
Q 1563 422 1919 422 
Q 2459 422 2753 634 
Q 3047 847 3047 1241 
Q 3047 1584 2836 1778 
Q 2625 1972 2144 2069 
L 1759 2144 
Q 1053 2284 737 2584 
Q 422 2884 422 3419 
Q 422 4038 858 4394 
Q 1294 4750 2059 4750 
Q 2388 4750 2728 4690 
Q 3069 4631 3425 4513 
z
" transform="scale(0.015625)"/>
       <path id="DejaVuSans-69" d="M 603 3500 
L 1178 3500 
L 1178 0 
L 603 0 
L 603 3500 
z
M 603 4863 
L 1178 4863 
L 1178 4134 
L 603 4134 
L 603 4863 
z
" transform="scale(0.015625)"/>
       <path id="DejaVuSans-7a" d="M 353 3500 
L 3084 3500 
L 3084 2975 
L 922 459 
L 3084 459 
L 3084 0 
L 275 0 
L 275 525 
L 2438 3041 
L 353 3041 
L 353 3500 
z
" transform="scale(0.015625)"/>
      </defs>
      <use xlink:href="#DejaVuSans-56"/>
      <use xlink:href="#DejaVuSans-6f" x="60.658203"/>
      <use xlink:href="#DejaVuSans-63" x="121.839844"/>
      <use xlink:href="#DejaVuSans-61" x="176.820312"/>
      <use xlink:href="#DejaVuSans-62" x="238.099609"/>
      <use xlink:href="#DejaVuSans-20" x="301.576172"/>
      <use xlink:href="#DejaVuSans-53" x="333.363281"/>
      <use xlink:href="#DejaVuSans-69" x="396.839844"/>
      <use xlink:href="#DejaVuSans-7a" x="424.623047"/>
      <use xlink:href="#DejaVuSans-65" x="477.113281"/>
     </g>
    </g>
   </g>
   <g id="patch_3">
    <path d="M 162 768.96 
L 162 103.68 
" style="fill: none; stroke: #000000; stroke-width: 0.8; stroke-linejoin: miter; stroke-linecap: square"/>
   </g>
   <g id="patch_4">
    <path d="M 162 768.96 
L 1166.4 768.96 
" style="fill: none; stroke: #000000; stroke-width: 0.8; stroke-linejoin: miter; stroke-linecap: square"/>
   </g>
   <g id="text_17">
    <!-- BERTabaporu -->
    <g transform="translate(169.346694 643.285762) scale(0.1 -0.1)">
     <defs>
      <path id="DejaVuSans-42" d="M 1259 2228 
L 1259 519 
L 2272 519 
Q 2781 519 3026 730 
Q 3272 941 3272 1375 
Q 3272 1813 3026 2020 
Q 2781 2228 2272 2228 
L 1259 2228 
z
M 1259 4147 
L 1259 2741 
L 2194 2741 
Q 2656 2741 2882 2914 
Q 3109 3088 3109 3444 
Q 3109 3797 2882 3972 
Q 2656 4147 2194 4147 
L 1259 4147 
z
M 628 4666 
L 2241 4666 
Q 2963 4666 3353 4366 
Q 3744 4066 3744 3513 
Q 3744 3084 3544 2831 
Q 3344 2578 2956 2516 
Q 3422 2416 3680 2098 
Q 3938 1781 3938 1306 
Q 3938 681 3513 340 
Q 3088 0 2303 0 
L 628 0 
L 628 4666 
z
" transform="scale(0.015625)"/>
      <path id="DejaVuSans-45" d="M 628 4666 
L 3578 4666 
L 3578 4134 
L 1259 4134 
L 1259 2753 
L 3481 2753 
L 3481 2222 
L 1259 2222 
L 1259 531 
L 3634 531 
L 3634 0 
L 628 0 
L 628 4666 
z
" transform="scale(0.015625)"/>
      <path id="DejaVuSans-52" d="M 2841 2188 
Q 3044 2119 3236 1894 
Q 3428 1669 3622 1275 
L 4263 0 
L 3584 0 
L 2988 1197 
Q 2756 1666 2539 1819 
Q 2322 1972 1947 1972 
L 1259 1972 
L 1259 0 
L 628 0 
L 628 4666 
L 2053 4666 
Q 2853 4666 3247 4331 
Q 3641 3997 3641 3322 
Q 3641 2881 3436 2590 
Q 3231 2300 2841 2188 
z
M 1259 4147 
L 1259 2491 
L 2053 2491 
Q 2509 2491 2742 2702 
Q 2975 2913 2975 3322 
Q 2975 3731 2742 3939 
Q 2509 4147 2053 4147 
L 1259 4147 
z
" transform="scale(0.015625)"/>
      <path id="DejaVuSans-70" d="M 1159 525 
L 1159 -1331 
L 581 -1331 
L 581 3500 
L 1159 3500 
L 1159 2969 
Q 1341 3281 1617 3432 
Q 1894 3584 2278 3584 
Q 2916 3584 3314 3078 
Q 3713 2572 3713 1747 
Q 3713 922 3314 415 
Q 2916 -91 2278 -91 
Q 1894 -91 1617 61 
Q 1341 213 1159 525 
z
M 3116 1747 
Q 3116 2381 2855 2742 
Q 2594 3103 2138 3103 
Q 1681 3103 1420 2742 
Q 1159 2381 1159 1747 
Q 1159 1113 1420 752 
Q 1681 391 2138 391 
Q 2594 391 2855 752 
Q 3116 1113 3116 1747 
z
" transform="scale(0.015625)"/>
     </defs>
     <use xlink:href="#DejaVuSans-42"/>
     <use xlink:href="#DejaVuSans-45" x="68.603516"/>
     <use xlink:href="#DejaVuSans-52" x="131.787109"/>
     <use xlink:href="#DejaVuSans-54" x="194.019531"/>
     <use xlink:href="#DejaVuSans-61" x="238.603516"/>
     <use xlink:href="#DejaVuSans-62" x="299.882812"/>
     <use xlink:href="#DejaVuSans-61" x="363.359375"/>
     <use xlink:href="#DejaVuSans-70" x="424.638672"/>
     <use xlink:href="#DejaVuSans-6f" x="488.115234"/>
     <use xlink:href="#DejaVuSans-72" x="549.296875"/>
     <use xlink:href="#DejaVuSans-75" x="590.410156"/>
    </g>
   </g>
   <g id="text_18">
    <!-- Bloom -->
    <g transform="translate(285.176548 168.3223) scale(0.1 -0.1)">
     <defs>
      <path id="DejaVuSans-6c" d="M 603 4863 
L 1178 4863 
L 1178 0 
L 603 0 
L 603 4863 
z
" transform="scale(0.015625)"/>
     </defs>
     <use xlink:href="#DejaVuSans-42"/>
     <use xlink:href="#DejaVuSans-6c" x="68.603516"/>
     <use xlink:href="#DejaVuSans-6f" x="96.386719"/>
     <use xlink:href="#DejaVuSans-6f" x="157.568359"/>
     <use xlink:href="#DejaVuSans-6d" x="218.75"/>
    </g>
   </g>
   <g id="text_19">
    <!-- TeenyTinyLlama -->
    <g transform="translate(306.157133 724.702254) scale(0.1 -0.1)">
     <defs>
      <path id="DejaVuSans-79" d="M 2059 -325 
Q 1816 -950 1584 -1140 
Q 1353 -1331 966 -1331 
L 506 -1331 
L 506 -850 
L 844 -850 
Q 1081 -850 1212 -737 
Q 1344 -625 1503 -206 
L 1606 56 
L 191 3500 
L 800 3500 
L 1894 763 
L 2988 3500 
L 3597 3500 
L 2059 -325 
z
" transform="scale(0.015625)"/>
      <path id="DejaVuSans-4c" d="M 628 4666 
L 1259 4666 
L 1259 531 
L 3531 531 
L 3531 0 
L 628 0 
L 628 4666 
z
" transform="scale(0.015625)"/>
     </defs>
     <use xlink:href="#DejaVuSans-54"/>
     <use xlink:href="#DejaVuSans-65" x="44.083984"/>
     <use xlink:href="#DejaVuSans-65" x="105.607422"/>
     <use xlink:href="#DejaVuSans-6e" x="167.130859"/>
     <use xlink:href="#DejaVuSans-79" x="230.509766"/>
     <use xlink:href="#DejaVuSans-54" x="289.689453"/>
     <use xlink:href="#DejaVuSans-69" x="347.648438"/>
     <use xlink:href="#DejaVuSans-6e" x="375.431641"/>
     <use xlink:href="#DejaVuSans-79" x="438.810547"/>
     <use xlink:href="#DejaVuSans-4c" x="497.990234"/>
     <use xlink:href="#DejaVuSans-6c" x="553.703125"/>
     <use xlink:href="#DejaVuSans-61" x="581.486328"/>
     <use xlink:href="#DejaVuSans-6d" x="642.765625"/>
     <use xlink:href="#DejaVuSans-61" x="740.177734"/>
    </g>
   </g>
   <g id="text_20">
    <!-- XGLM -->
    <g transform="translate(369.090616 154.766454) scale(0.1 -0.1)">
     <defs>
      <path id="DejaVuSans-58" d="M 403 4666 
L 1081 4666 
L 2241 2931 
L 3406 4666 
L 4084 4666 
L 2584 2425 
L 4184 0 
L 3506 0 
L 2194 1984 
L 872 0 
L 191 0 
L 1856 2491 
L 403 4666 
z
" transform="scale(0.015625)"/>
      <path id="DejaVuSans-47" d="M 3809 666 
L 3809 1919 
L 2778 1919 
L 2778 2438 
L 4434 2438 
L 4434 434 
Q 4069 175 3628 42 
Q 3188 -91 2688 -91 
Q 1594 -91 976 548 
Q 359 1188 359 2328 
Q 359 3472 976 4111 
Q 1594 4750 2688 4750 
Q 3144 4750 3555 4637 
Q 3966 4525 4313 4306 
L 4313 3634 
Q 3963 3931 3569 4081 
Q 3175 4231 2741 4231 
Q 1884 4231 1454 3753 
Q 1025 3275 1025 2328 
Q 1025 1384 1454 906 
Q 1884 428 2741 428 
Q 3075 428 3337 486 
Q 3600 544 3809 666 
z
" transform="scale(0.015625)"/>
      <path id="DejaVuSans-4d" d="M 628 4666 
L 1569 4666 
L 2759 1491 
L 3956 4666 
L 4897 4666 
L 4897 0 
L 4281 0 
L 4281 4097 
L 3078 897 
L 2444 897 
L 1241 4097 
L 1241 0 
L 628 0 
L 628 4666 
z
" transform="scale(0.015625)"/>
     </defs>
     <use xlink:href="#DejaVuSans-58"/>
     <use xlink:href="#DejaVuSans-47" x="68.505859"/>
     <use xlink:href="#DejaVuSans-4c" x="145.996094"/>
     <use xlink:href="#DejaVuSans-4d" x="201.708984"/>
    </g>
   </g>
   <g id="text_21">
    <!-- XLM -->
    <g transform="translate(414.687578 170.047312) scale(0.1 -0.1)">
     <use xlink:href="#DejaVuSans-58"/>
     <use xlink:href="#DejaVuSans-4c" x="68.505859"/>
     <use xlink:href="#DejaVuSans-4d" x="124.21875"/>
    </g>
   </g>
   <g id="text_22">
    <!-- BERTimbau -->
    <g transform="translate(421.603955 730.314904) scale(0.1 -0.1)">
     <use xlink:href="#DejaVuSans-42"/>
     <use xlink:href="#DejaVuSans-45" x="68.603516"/>
     <use xlink:href="#DejaVuSans-52" x="131.787109"/>
     <use xlink:href="#DejaVuSans-54" x="194.019531"/>
     <use xlink:href="#DejaVuSans-69" x="251.978516"/>
     <use xlink:href="#DejaVuSans-6d" x="279.761719"/>
     <use xlink:href="#DejaVuSans-62" x="377.173828"/>
     <use xlink:href="#DejaVuSans-61" x="440.650391"/>
     <use xlink:href="#DejaVuSans-75" x="501.929688"/>
    </g>
   </g>
   <g id="text_23">
    <!-- GlórIA -->
    <g transform="translate(464.996225 678.249057) scale(0.1 -0.1)">
     <defs>
      <path id="DejaVuSans-f3" d="M 1959 3097 
Q 1497 3097 1228 2736 
Q 959 2375 959 1747 
Q 959 1119 1226 758 
Q 1494 397 1959 397 
Q 2419 397 2687 759 
Q 2956 1122 2956 1747 
Q 2956 2369 2687 2733 
Q 2419 3097 1959 3097 
z
M 1959 3584 
Q 2709 3584 3137 3096 
Q 3566 2609 3566 1747 
Q 3566 888 3137 398 
Q 2709 -91 1959 -91 
Q 1206 -91 779 398 
Q 353 888 353 1747 
Q 353 2609 779 3096 
Q 1206 3584 1959 3584 
z
M 2394 5119 
L 3016 5119 
L 1998 3944 
L 1519 3944 
L 2394 5119 
z
" transform="scale(0.015625)"/>
      <path id="DejaVuSans-49" d="M 628 4666 
L 1259 4666 
L 1259 0 
L 628 0 
L 628 4666 
z
" transform="scale(0.015625)"/>
      <path id="DejaVuSans-41" d="M 2188 4044 
L 1331 1722 
L 3047 1722 
L 2188 4044 
z
M 1831 4666 
L 2547 4666 
L 4325 0 
L 3669 0 
L 3244 1197 
L 1141 1197 
L 716 0 
L 50 0 
L 1831 4666 
z
" transform="scale(0.015625)"/>
     </defs>
     <use xlink:href="#DejaVuSans-47"/>
     <use xlink:href="#DejaVuSans-6c" x="77.490234"/>
     <use xlink:href="#DejaVuSans-f3" x="105.273438"/>
     <use xlink:href="#DejaVuSans-72" x="166.455078"/>
     <use xlink:href="#DejaVuSans-49" x="207.568359"/>
     <use xlink:href="#DejaVuSans-41" x="237.060547"/>
    </g>
   </g>
   <g id="text_24">
    <!-- PTT5-v2 -->
    <g transform="translate(509.709016 724.447828) scale(0.1 -0.1)">
     <defs>
      <path id="DejaVuSans-50" d="M 1259 4147 
L 1259 2394 
L 2053 2394 
Q 2494 2394 2734 2622 
Q 2975 2850 2975 3272 
Q 2975 3691 2734 3919 
Q 2494 4147 2053 4147 
L 1259 4147 
z
M 628 4666 
L 2053 4666 
Q 2838 4666 3239 4311 
Q 3641 3956 3641 3272 
Q 3641 2581 3239 2228 
Q 2838 1875 2053 1875 
L 1259 1875 
L 1259 0 
L 628 0 
L 628 4666 
z
" transform="scale(0.015625)"/>
      <path id="DejaVuSans-2d" d="M 313 2009 
L 1997 2009 
L 1997 1497 
L 313 1497 
L 313 2009 
z
" transform="scale(0.015625)"/>
      <path id="DejaVuSans-76" d="M 191 3500 
L 800 3500 
L 1894 563 
L 2988 3500 
L 3597 3500 
L 2284 0 
L 1503 0 
L 191 3500 
z
" transform="scale(0.015625)"/>
     </defs>
     <use xlink:href="#DejaVuSans-50"/>
     <use xlink:href="#DejaVuSans-54" x="60.302734"/>
     <use xlink:href="#DejaVuSans-54" x="119.636719"/>
     <use xlink:href="#DejaVuSans-35" x="180.720703"/>
     <use xlink:href="#DejaVuSans-2d" x="244.34375"/>
     <use xlink:href="#DejaVuSans-76" x="277.802734"/>
     <use xlink:href="#DejaVuSans-32" x="336.982422"/>
    </g>
   </g>
   <g id="text_25">
    <!-- mBERT -->
    <g transform="translate(526.890385 501.959453) scale(0.1 -0.1)">
     <use xlink:href="#DejaVuSans-6d"/>
     <use xlink:href="#DejaVuSans-42" x="97.412109"/>
     <use xlink:href="#DejaVuSans-45" x="166.015625"/>
     <use xlink:href="#DejaVuSans-52" x="229.199219"/>
     <use xlink:href="#DejaVuSans-54" x="291.431641"/>
    </g>
   </g>
   <g id="text_26">
    <!-- PolyLM -->
    <g transform="translate(555.238981 154.786808) scale(0.1 -0.1)">
     <use xlink:href="#DejaVuSans-50"/>
     <use xlink:href="#DejaVuSans-6f" x="56.677734"/>
     <use xlink:href="#DejaVuSans-6c" x="117.859375"/>
     <use xlink:href="#DejaVuSans-79" x="145.642578"/>
     <use xlink:href="#DejaVuSans-4c" x="204.822266"/>
     <use xlink:href="#DejaVuSans-4d" x="260.535156"/>
    </g>
   </g>
   <g id="text_27">
    <!-- Llama 3 -->
    <g transform="translate(578.420688 479.801446) scale(0.1 -0.1)">
     <use xlink:href="#DejaVuSans-4c"/>
     <use xlink:href="#DejaVuSans-6c" x="55.712891"/>
     <use xlink:href="#DejaVuSans-61" x="83.496094"/>
     <use xlink:href="#DejaVuSans-6d" x="144.775391"/>
     <use xlink:href="#DejaVuSans-61" x="242.1875"/>
     <use xlink:href="#DejaVuSans-20" x="303.466797"/>
     <use xlink:href="#DejaVuSans-33" x="335.253906"/>
    </g>
   </g>
   <g id="text_28">
    <!-- Cabrita -->
    <g transform="translate(627.705602 673.816947) scale(0.1 -0.1)">
     <defs>
      <path id="DejaVuSans-43" d="M 4122 4306 
L 4122 3641 
Q 3803 3938 3442 4084 
Q 3081 4231 2675 4231 
Q 1875 4231 1450 3742 
Q 1025 3253 1025 2328 
Q 1025 1406 1450 917 
Q 1875 428 2675 428 
Q 3081 428 3442 575 
Q 3803 722 4122 1019 
L 4122 359 
Q 3791 134 3420 21 
Q 3050 -91 2638 -91 
Q 1578 -91 968 557 
Q 359 1206 359 2328 
Q 359 3453 968 4101 
Q 1578 4750 2638 4750 
Q 3056 4750 3426 4639 
Q 3797 4528 4122 4306 
z
" transform="scale(0.015625)"/>
      <path id="DejaVuSans-74" d="M 1172 4494 
L 1172 3500 
L 2356 3500 
L 2356 3053 
L 1172 3053 
L 1172 1153 
Q 1172 725 1289 603 
Q 1406 481 1766 481 
L 2356 481 
L 2356 0 
L 1766 0 
Q 1100 0 847 248 
Q 594 497 594 1153 
L 594 3053 
L 172 3053 
L 172 3500 
L 594 3500 
L 594 4494 
L 1172 4494 
z
" transform="scale(0.015625)"/>
     </defs>
     <use xlink:href="#DejaVuSans-43"/>
     <use xlink:href="#DejaVuSans-61" x="69.824219"/>
     <use xlink:href="#DejaVuSans-62" x="131.103516"/>
     <use xlink:href="#DejaVuSans-72" x="194.580078"/>
     <use xlink:href="#DejaVuSans-69" x="235.693359"/>
     <use xlink:href="#DejaVuSans-74" x="263.476562"/>
     <use xlink:href="#DejaVuSans-61" x="302.685547"/>
    </g>
   </g>
   <g id="text_29">
    <!-- mT5 -->
    <g transform="translate(669.792696 169.797974) scale(0.1 -0.1)">
     <use xlink:href="#DejaVuSans-6d"/>
     <use xlink:href="#DejaVuSans-54" x="97.412109"/>
     <use xlink:href="#DejaVuSans-35" x="158.496094"/>
    </g>
   </g>
   <g id="text_30">
    <!-- mGPT -->
    <g transform="translate(676.327649 551.692208) scale(0.1 -0.1)">
     <use xlink:href="#DejaVuSans-6d"/>
     <use xlink:href="#DejaVuSans-47" x="97.412109"/>
     <use xlink:href="#DejaVuSans-50" x="174.902344"/>
     <use xlink:href="#DejaVuSans-54" x="235.205078"/>
    </g>
   </g>
   <g id="text_31">
    <!-- Sabiá -->
    <g transform="translate(873.652364 724.702254) scale(0.1 -0.1)">
     <defs>
      <path id="DejaVuSans-e1" d="M 2194 1759 
Q 1497 1759 1228 1600 
Q 959 1441 959 1056 
Q 959 750 1161 570 
Q 1363 391 1709 391 
Q 2188 391 2477 730 
Q 2766 1069 2766 1631 
L 2766 1759 
L 2194 1759 
z
M 3341 1997 
L 3341 0 
L 2766 0 
L 2766 531 
Q 2569 213 2275 61 
Q 1981 -91 1556 -91 
Q 1019 -91 701 211 
Q 384 513 384 1019 
Q 384 1609 779 1909 
Q 1175 2209 1959 2209 
L 2766 2209 
L 2766 2266 
Q 2766 2663 2505 2880 
Q 2244 3097 1772 3097 
Q 1472 3097 1187 3025 
Q 903 2953 641 2809 
L 641 3341 
Q 956 3463 1253 3523 
Q 1550 3584 1831 3584 
Q 2591 3584 2966 3190 
Q 3341 2797 3341 1997 
z
M 2290 5119 
L 2912 5119 
L 1894 3944 
L 1415 3944 
L 2290 5119 
z
" transform="scale(0.015625)"/>
     </defs>
     <use xlink:href="#DejaVuSans-53"/>
     <use xlink:href="#DejaVuSans-61" x="63.476562"/>
     <use xlink:href="#DejaVuSans-62" x="124.755859"/>
     <use xlink:href="#DejaVuSans-69" x="188.232422"/>
     <use xlink:href="#DejaVuSans-e1" x="216.015625"/>
    </g>
   </g>
   <g id="text_32">
    <!-- Albertina PT-BR -->
    <g transform="translate(1008.738776 678.231247) scale(0.1 -0.1)">
     <use xlink:href="#DejaVuSans-41"/>
     <use xlink:href="#DejaVuSans-6c" x="68.408203"/>
     <use xlink:href="#DejaVuSans-62" x="96.191406"/>
     <use xlink:href="#DejaVuSans-65" x="159.667969"/>
     <use xlink:href="#DejaVuSans-72" x="221.191406"/>
     <use xlink:href="#DejaVuSans-74" x="262.304688"/>
     <use xlink:href="#DejaVuSans-69" x="301.513672"/>
     <use xlink:href="#DejaVuSans-6e" x="329.296875"/>
     <use xlink:href="#DejaVuSans-61" x="392.675781"/>
     <use xlink:href="#DejaVuSans-20" x="453.955078"/>
     <use xlink:href="#DejaVuSans-50" x="485.742188"/>
     <use xlink:href="#DejaVuSans-54" x="546.044922"/>
     <use xlink:href="#DejaVuSans-2d" x="598.003906"/>
     <use xlink:href="#DejaVuSans-42" x="630.462891"/>
     <use xlink:href="#DejaVuSans-52" x="699.066406"/>
    </g>
   </g>
   <g id="text_33">
    <!-- Sabiá 2 -->
    <g transform="translate(1128.808796 643.285762) scale(0.1 -0.1)">
     <use xlink:href="#DejaVuSans-53"/>
     <use xlink:href="#DejaVuSans-61" x="63.476562"/>
     <use xlink:href="#DejaVuSans-62" x="124.755859"/>
     <use xlink:href="#DejaVuSans-69" x="188.232422"/>
     <use xlink:href="#DejaVuSans-e1" x="216.015625"/>
     <use xlink:href="#DejaVuSans-20" x="277.294922"/>
     <use xlink:href="#DejaVuSans-32" x="309.082031"/>
    </g>
   </g>
  </g>
 </g>
 <defs>
  <clipPath id="p8616fd40f9">
   <rect x="162" y="103.68" width="1004.4" height="665.28"/>
  </clipPath>
 </defs>
</svg>
